<?xml version="1.0" encoding="UTF-8"?>
<svg xmlns="http://www.w3.org/2000/svg" id="Calque_2" data-name="Calque 2" viewBox="0 0 166.5 43.59">
  <defs>
    <style>
      .cls-1 {
        fill: #fff;
        stroke-width: 0px;
      }
    </style>
  </defs>
  <g id="LOGO_LARGE_-_copie" data-name="LOGO LARGE - copie">
    <g>
      <g>
        <polygon class="cls-1" points="34.01 9.24 34.01 14.53 28.38 17.2 22.78 19.86 17.23 22.5 17.23 17.21 28.38 11.92 34.01 9.24"></polygon>
        <polygon class="cls-1" points="34.01 25.09 34.01 25.19 34.01 30.38 34.01 30.48 34.01 35.62 33.91 35.67 28.38 38.29 28.3 38.33 22.73 40.97 17.23 43.59 17.23 38.35 22.78 35.71 28.38 33.05 28.39 33.05 28.38 33.05 28.38 27.77 28.34 27.79 22.82 30.41 17.23 33.06 17.23 27.74 22.73 25.12 28.3 22.48 28.38 22.44 34.01 19.77 34.01 25.09"></polygon>
      </g>
      <g>
        <polygon class="cls-1" points="6.08 22.49 6.13 22.47 11.7 25.11 17.21 27.73 17.23 27.74 17.23 33.04 17.21 33.05 11.61 30.39 6.09 27.77 6.08 27.77 .52 25.13 0 24.88 0 9.03 6.08 11.92 17.21 17.2 17.23 17.21 17.23 22.48 17.21 22.49 11.65 19.85 6.08 17.2 6.08 22.49"></polygon>
        <polygon class="cls-1" points="17.23 38.35 17.23 43.57 17.21 43.58 11.7 40.96 6.13 38.31 6.08 38.29 .52 35.65 0 35.41 0 30.17 .52 30.41 6.04 33.03 6.08 33.05 11.65 35.69 11.65 35.69 17.21 38.34 17.21 38.34 17.23 38.35"></polygon>
      </g>
      <path class="cls-1" d="M26.6,3.96l-2.03-.84-7.57-3.13L0,6.81l17.23,8.18,7.34-3.48h0s2.01-.96,2.01-.96l7.43-3.53-7.41-3.06ZM17.8,6.01l1.22.65-1.23.72-1.29-.74,1.3-.64Z"></path>
      <path class="cls-1" d="M24.57,9.46l-6.76-3.67-1.74.86,8.5,4.86h0v10.9l1.03-1.74.82,2.71.11.35v-.41l.02-5.25.02-5.3v-2.23s-2-1.09-2-1.09ZM17.79,7.39l-1.29-.74,1.3-.64,1.22.65-1.23.72Z"></path>
      <path class="cls-1" d="M55.72,35.05c-.09-.29-.22-.56-.4-.81-.18-.25-.41-.48-.68-.68-.28-.2-.46-.32-.54-.34.26-.12.52-.4.79-.85.26-.45.39-.92.39-1.41,0-.41-.08-.8-.25-1.15-.17-.36-.43-.67-.77-.93-.34-.26-.77-.47-1.28-.62-.51-.14-1.12-.22-1.82-.22h-3.94v11.28h4.48c.51,0,1.01-.06,1.51-.19.49-.13.94-.32,1.33-.59.39-.27.71-.62.95-1.05.24-.43.36-.95.36-1.55,0-.3-.04-.59-.13-.87ZM49.52,30.18h1.52c.71,0,1.2.1,1.48.31.28.2.41.47.41.79,0,.39-.14.67-.43.87-.29.19-.77.28-1.46.28h-1.52v-2.25ZM53.01,36.85c-.33.2-.85.3-1.58.3h-1.91v-2.55h1.86c.35,0,.66.02.93.06.27.04.49.11.66.21.17.1.3.23.39.39.09.15.14.36.14.63,0,.44-.16.76-.48.96Z"></path>
      <path class="cls-1" d="M59.82,37.15v-2.54h4.57v-2.18h-4.57v-2.25h5.04v-2.16h-7.33v11.28h7.36v-2.16h-5.07Z"></path>
      <path class="cls-1" d="M65.68,28.03v2.16h3.64v9.13h2.31v-9.13h3.64v-2.16h-9.58Z"></path>
      <path class="cls-1" d="M80.87,28.03h-2.6l-4.18,11.28h2.41l.92-2.58h4.29l.93,2.58h2.41l-4.18-11.28ZM78.19,34.56l1.37-3.84,1.38,3.84h-2.75Z"></path>
      <path class="cls-1" d="M97.82,34.68c-.19-.39-.44-.73-.77-1.01-.32-.29-.69-.52-1.12-.7-.42-.19-.87-.34-1.33-.47l-.92-.23c-.58-.14-1-.31-1.24-.5-.24-.19-.37-.43-.37-.74,0-.16.05-.3.13-.43.08-.12.21-.23.37-.32.16-.09.35-.16.57-.2.22-.05.45-.07.7-.07.51,0,1.04.07,1.59.22.54.15,1.06.39,1.57.71l.92-2.03c-.34-.21-.66-.37-.96-.48-.31-.12-.63-.23-.97-.32-.34-.1-.69-.17-1.05-.22-.37-.05-.72-.07-1.07-.07-.61,0-1.17.07-1.67.22-.5.14-.94.36-1.3.64-.37.28-.66.62-.86,1.01-.2.4-.3.83-.3,1.3,0,.86.26,1.59.79,2.17.53.59,1.31,1.01,2.35,1.26l.9.23c.31.08.58.16.83.24.25.08.45.17.62.27.16.1.29.22.37.36.09.14.13.3.13.49,0,.21-.05.4-.15.56-.1.16-.25.29-.44.4-.19.11-.42.19-.68.24-.27.05-.56.07-.88.07-.28,0-.56-.02-.85-.06-.29-.05-.57-.1-.85-.17-.28-.06-.54-.15-.78-.25-.24-.1-.51-.25-.81-.44l-.92,2.03c.34.21.66.37.97.49.31.11.65.22,1.01.31.36.09.73.16,1.12.21.39.05.77.08,1.16.08.63,0,1.23-.08,1.78-.23.55-.14,1.02-.36,1.42-.65.4-.29.72-.65.95-1.08s.35-.92.35-1.48c0-.51-.09-.96-.28-1.35Z"></path>
      <path class="cls-1" d="M106.27,37.07c-.44.14-.93.21-1.45.21-.48,0-.92-.07-1.35-.21-.43-.14-.8-.37-1.11-.67-.32-.3-.57-.68-.76-1.14-.19-.46-.29-.99-.29-1.61s.1-1.16.29-1.61c.19-.46.44-.83.76-1.13.32-.3.69-.53,1.11-.67.42-.14.87-.21,1.35-.21.52,0,1.01.07,1.45.21.45.14.92.37,1.42.67l.89-2.03c-.57-.35-1.17-.62-1.81-.79-.64-.18-1.32-.26-2.03-.26-.89,0-1.69.14-2.41.43-.72.29-1.33.7-1.84,1.23-.51.53-.9,1.15-1.17,1.85-.28.71-.41,1.48-.41,2.31s.14,1.59.41,2.31c.27.71.66,1.33,1.17,1.85.51.53,1.12.93,1.84,1.23.72.29,1.52.44,2.41.44.71,0,1.39-.09,2.03-.26s1.25-.43,1.81-.78l-.89-2.05c-.5.32-.98.54-1.42.69Z"></path>
      <path class="cls-1" d="M117.26,28.03v4.41h-4.89v-4.41h-2.29v11.28h2.29v-4.69h4.89v4.69h2.31v-11.28h-2.31Z"></path>
      <path class="cls-1" d="M161.47,37.13v-9.12h-2.31v11.28h7.33v-2.16h-5.03Z"></path>
      <path class="cls-1" d="M134.84,30.04h-9.49c-2.2.48-3.79,2.42-3.82,4.65-.03,2.28,1.58,4.29,3.82,4.78h9.49c2.14-.52,3.68-2.39,3.76-4.54.09-2.27-1.49-4.34-3.76-4.89ZM134.22,37.11h-8.09c-1.12-.24-1.93-1.25-1.91-2.39.02-1.11.81-2.09,1.91-2.33h8.09c1.14.28,1.92,1.31,1.88,2.45-.04,1.08-.81,2.01-1.88,2.27Z"></path>
      <path class="cls-1" d="M153.34,30.04h-9.49c-2.21.48-3.8,2.42-3.82,4.65-.03,2.28,1.58,4.29,3.82,4.78h9.49c2.14-.52,3.68-2.39,3.76-4.54.09-2.27-1.49-4.34-3.76-4.89ZM152.73,37.11h-8.09c-1.12-.24-1.92-1.25-1.91-2.39.01-1.11.81-2.09,1.91-2.33h8.09c1.13.28,1.92,1.31,1.88,2.45-.04,1.08-.81,2.01-1.88,2.27Z"></path>
      <g>
        <path class="cls-1" d="M70.34,10.05c-.22-1.06-.67-2.02-1.34-2.86-.68-.84-1.56-1.58-2.64-2.2-1.07-.63-2.26-1.15-3.57-1.56-1.3-.41-2.69-.72-4.15-.92-1.47-.2-2.94-.3-4.42-.3-1.21,0-2.41.07-3.59.2-1.18.14-2.29.34-3.32.61-1.04.27-1.99.61-2.86,1.01-.87.4-1.6.86-2.21,1.39-.61.53-1.06,1.11-1.35,1.76-.29.65-.39,1.36-.3,2.14.07.57.34,1.11.79,1.63.46.52,1.01,1.01,1.64,1.49.64.47,1.31.92,2.03,1.33.72.42,1.36.82,1.94,1.2-.74,1.55-1.51,3.17-2.3,4.83-.79,1.67-1.55,3.31-2.3,4.94-.88-.33-1.63-.74-2.26-1.24-.37-.29-.6-.62-.68-1-.08-.38-.06-.78.05-1.19.12-.41.33-.82.62-1.22.29-.4.62-.77.99-1.11.38-.34.77-.63,1.19-.87.42-.24.82-.4,1.21-.47.12-.02.2-.07.24-.13.04-.06.05-.11.04-.16-.02-.05-.06-.08-.14-.1-.07-.02-.16,0-.27.03-.63.22-1.2.5-1.74.83s-1.01.69-1.41,1.09c-.4.39-.72.81-.97,1.25-.24.43-.39.87-.45,1.29-.05.42,0,.83.16,1.22.16.39.45.73.86,1.04.34.26.7.49,1.09.7.39.21.8.39,1.23.56-.53,1.16-1.03,2.3-1.51,3.39s-.92,2.12-1.3,3.06c-.39.94-.72,1.79-.99,2.55-.28.76-.48,1.4-.61,1.9-.17.63-.21,1.07-.14,1.33.08.27.21.4.39.4.14,0,.3-.07.47-.2.17-.14.33-.32.47-.56.35-.59.79-1.3,1.32-2.13.53-.83,1.11-1.73,1.73-2.7.62-.96,1.25-1.97,1.91-3.04.66-1.06,1.29-2.12,1.9-3.18.38.05.77.08,1.15.1.39.02.77.03,1.17.03,1.43,0,2.9-.13,4.43-.39,1.52-.26,3.03-.64,4.52-1.13,1.49-.49,2.93-1.11,4.31-1.83,1.38-.72,2.65-1.55,3.8-2.48,1.15-.93,2.14-1.96,2.99-3.1.85-1.14,1.48-2.36,1.88-3.67.41-1.3.51-2.47.29-3.54ZM43.44,29.09c-.64,1.03-1.26,2.01-1.87,2.93-.61.92-1.18,1.75-1.71,2.51-.53.75-1,1.38-1.4,1.87.09-.4.26-.96.53-1.67.27-.72.61-1.54,1.01-2.49.4-.95.86-1.99,1.38-3.12.52-1.13,1.07-2.32,1.66-3.59.73.2,1.48.35,2.24.46-.59,1.04-1.2,2.07-1.84,3.1ZM45.58,25.47c-.41-.05-.81-.11-1.19-.19s-.76-.16-1.12-.26c.72-1.52,1.47-3.08,2.24-4.69.77-1.61,1.54-3.22,2.31-4.82.17.13.32.25.44.37.13.12.23.23.31.34.23.32.31.78.24,1.4-.06.61-.24,1.33-.53,2.15-.29.82-.67,1.72-1.14,2.7-.47.97-.99,1.97-1.57,3ZM68.9,13.29c-.31,1.16-.87,2.28-1.65,3.35-.78,1.07-1.73,2.05-2.84,2.96-1.11.91-2.35,1.73-3.71,2.46-1.35.73-2.77,1.36-4.24,1.88-1.47.52-2.97.92-4.48,1.2-1.52.29-2.98.43-4.38.43-.49,0-.99-.02-1.48-.05.6-1.06,1.15-2.09,1.63-3.08.49-1,.87-1.91,1.16-2.75.29-.83.46-1.58.51-2.22.05-.64-.07-1.14-.36-1.49-.13-.16-.28-.32-.44-.47-.16-.15-.34-.3-.55-.47.87-1.79,1.7-3.51,2.5-5.17.8-1.65,1.53-3.16,2.17-4.51.13-.31.17-.54.11-.7-.06-.16-.16-.24-.31-.24-.11,0-.23.05-.35.15-.13.1-.24.25-.34.45-.04.07-.18.36-.43.87-.25.5-.58,1.18-1,2.02-.41.84-.89,1.83-1.44,2.94-.55,1.12-1.13,2.32-1.74,3.6-.59-.39-1.22-.78-1.9-1.18-.68-.4-1.31-.81-1.9-1.24-.59-.43-1.1-.87-1.51-1.32-.42-.46-.67-.94-.74-1.43-.1-.67,0-1.3.31-1.87.3-.57.75-1.1,1.35-1.57.6-.48,1.33-.9,2.19-1.27.86-.37,1.8-.68,2.83-.94,1.03-.25,2.12-.44,3.28-.58,1.15-.13,2.32-.19,3.51-.19,1.34,0,2.66.09,3.98.26,1.31.18,2.56.44,3.73.81,1.17.36,2.23.82,3.18,1.39.95.57,1.73,1.23,2.35,2,.61.77,1.02,1.65,1.22,2.65.21.99.14,2.1-.19,3.32Z"></path>
        <path class="cls-1" d="M78.39,17.8c-.14-.14-.28-.22-.42-.23-.11-.02-.21,0-.32.09-.1.08-.2.19-.3.32-.1.13-.2.28-.3.44-.1.17-.18.33-.25.48-.04.07-.04.14-.02.22s.07.14.14.2c.07.06.14.1.22.13.08.03.14.04.19,0,.1-.05.2-.12.31-.22.11-.1.23-.21.35-.34.12-.13.23-.25.33-.37.1-.13.16-.23.19-.31.06-.14.02-.28-.12-.42ZM81.47,21.86s-.07-.06-.12-.07c-.05,0-.1,0-.14.05-.05.05-.12.1-.19.17-.14.13-.32.28-.53.45-.3.26-.65.54-1.04.84s-.79.61-1.22.92c-.43.31-.86.59-1.26.85-.41.25-.79.46-1.16.62-.36.16-.67.24-.92.24-.15,0-.29-.05-.41-.14-.22-.2-.31-.48-.29-.84.02-.36.13-.75.31-1.18.18-.42.42-.85.72-1.29.3-.43.62-.83.96-1.18.13-.14.16-.3.09-.48-.07-.18-.21-.28-.42-.28-.1,0-.18.02-.24.05-.06.04-.13.08-.2.12-.24.19-.48.38-.73.56-.24.19-.48.34-.71.49-.23.14-.44.25-.64.34-.2.09-.38.13-.53.13-.2,0-.36-.1-.47-.29-.11-.19-.14-.51-.11-.97.02-.26,0-.45-.07-.58-.07-.13-.18-.19-.32-.19-.24,0-.55.18-.92.53-.37.35-.73.87-1.08,1.54.13-.31.26-.59.39-.85.13-.26.24-.43.34-.53.18-.2.22-.35.13-.47-.1-.11-.23-.17-.4-.17-.19,0-.34.07-.43.21-.06.1-.16.3-.3.6-.14.29-.3.67-.5,1.11-.19.44-.41.94-.66,1.5-.24.56-.51,1.15-.78,1.78-.09.2-.08.37.02.5.1.14.22.2.38.2.18,0,.33-.11.45-.32.07-.13.2-.37.4-.72.19-.35.41-.74.65-1.17s.48-.87.74-1.3c.25-.44.49-.82.7-1.14.28-.39.5-.58.67-.58.12,0,.18.08.18.23,0,.53.1.91.26,1.13.16.22.38.34.66.34.24,0,.52-.08.84-.23.32-.15.65-.35,1-.58-.27.4-.53.85-.79,1.35-.26.5-.43.99-.54,1.46-.1.48-.09.91.05,1.3.14.39.47.67.98.83.3.1.67.06,1.11-.1s.91-.4,1.4-.72c.5-.31,1.01-.67,1.52-1.07.51-.4.98-.79,1.41-1.16.33-.29.63-.55.89-.79.08-.07.16-.14.24-.21.32-.29.53-.48.64-.58.05-.03.07-.08.06-.13s-.02-.1-.05-.13Z"></path>
        <path class="cls-1" d="M89.04,21.96s-.09-.08-.14-.08c-.08,0-.15.04-.2.12-.04.06-.12.19-.27.41-.14.21-.32.46-.53.74-.18.24-.37.49-.58.76-.03.04-.07.08-.1.13-.25.3-.51.58-.77.83-.27.25-.53.45-.78.6-.26.15-.5.22-.73.19-.18-.03-.27-.14-.28-.34,0-.2.03-.43.11-.69.08-.26.17-.51.28-.75.11-.24.19-.42.24-.54.07-.23.04-.4-.11-.54-.14-.14-.3-.18-.47-.12s-.36.2-.56.43-.39.47-.58.71c-.18.24-.34.45-.48.62-.14.17-.23.23-.28.17-.04-.03-.02-.16.06-.38.08-.22.17-.46.28-.72.11-.27.22-.53.34-.78s.19-.43.23-.54c.12-.34.1-.61-.05-.8-.15-.19-.35-.29-.59-.29-.1,0-.22.02-.33.06-.11.04-.23.11-.34.2.02-.05.02-.1,0-.17-.02-.07-.06-.13-.13-.19-.06-.07-.13-.12-.21-.16-.09-.04-.16-.06-.24-.06-.11,0-.2.06-.27.18-.13.25-.29.55-.47.92-.02.05-.05.09-.06.13-.14.29-.29.59-.43.9-.01.03-.03.06-.05.1-.18.39-.35.78-.51,1.16-.16.39-.29.72-.37,1-.06.17-.03.3.09.41.12.11.24.16.38.16.15,0,.26-.07.32-.21.12-.28.28-.63.48-1.03.2-.4.4-.79.62-1.16s.42-.69.61-.96c.19-.26.34-.4.45-.4.06,0,.1.03.11.07.02.05,0,.18-.07.39-.07.21-.16.46-.26.74-.1.28-.19.58-.28.88-.08.3-.12.59-.12.85,0,.2.05.36.17.48.12.12.25.18.41.18.12,0,.24-.04.34-.1.17-.11.32-.25.47-.43.14-.18.28-.35.4-.53.12-.18.23-.34.34-.49.11-.15.2-.27.29-.34-.09.15-.17.36-.27.62-.1.26-.14.52-.15.78,0,.26.05.49.15.71.11.21.31.34.62.39.25.05.53,0,.82-.17.29-.16.59-.37.89-.64.28-.24.55-.52.82-.83.02-.02.04-.05.06-.07.29-.34.55-.66.78-.97.24-.31.43-.59.6-.84.17-.25.28-.42.33-.52.02-.06.02-.11-.02-.17Z"></path>
        <path class="cls-1" d="M95.17,21.9c-.03-.06-.08-.09-.15-.09s-.14.04-.2.11c-.1.13-.25.32-.46.56-.21.25-.45.53-.73.82s-.58.6-.91.91c-.33.3-.67.58-1.03.84s-.71.46-1.06.63c-.35.16-.69.24-1.02.24-.2,0-.39-.04-.58-.1-.4-.17-.66-.39-.77-.66-.12-.27-.16-.58-.11-.91.22.03.45.04.69.02.25-.01.49-.07.74-.16.25-.09.48-.21.72-.37.23-.16.43-.36.59-.61.2-.27.34-.53.39-.78.05-.24.05-.47-.02-.66-.07-.19-.18-.35-.34-.46-.16-.11-.37-.17-.62-.17-.18,0-.39.04-.61.11-.22.07-.46.19-.71.35-.49.3-.89.7-1.18,1.17-.25.4-.4.81-.48,1.21-.01.08-.02.15-.03.23-.01.13-.02.25,0,.38.01.34.1.67.28.97.23.41.61.71,1.15.9.11.03.22.06.34.09s.23.04.35.04c.36,0,.72-.08,1.1-.23.38-.15.74-.35,1.11-.6.37-.25.72-.53,1.07-.84.35-.31.67-.63.98-.96.31-.33.58-.65.84-.96.25-.31.46-.57.63-.8.06-.09.08-.17.05-.23ZM89.67,22.05c.2-.14.4-.2.6-.2.17,0,.29.06.38.18.09.12.11.27.07.44-.04.18-.14.37-.33.58-.19.21-.47.41-.84.58-.18.08-.35.14-.5.17-.16.03-.29.05-.4.05-.13,0-.24-.02-.34-.05.07-.18.18-.38.31-.6.14-.23.3-.44.48-.64.18-.2.37-.37.58-.5Z"></path>
      </g>
    </g>
  </g>
</svg>
